<?xml version="1.0" standalone="no"?>
<svg viewBox="0 0 200 200" xmlns="http://www.w3.org/2000/svg">
  <path fill="#FF0066" d="M33.1,-60.8C37.9,-54.5,33.3,-35.5,35.8,-23.3C38.4,-11,48.1,-5.5,52.9,2.8C57.7,11.1,57.7,22.2,52.6,30.1C47.5,38,37.5,42.7,27.9,50.9C18.3,59.1,9.1,70.7,-2.2,74.4C-13.5,78.2,-27,74.2,-39.1,67.4C-51.1,60.7,-61.7,51.2,-70.9,39.5C-80.1,27.8,-87.9,13.9,-80.9,4.1C-73.8,-5.7,-51.8,-11.5,-42,-22.2C-32.3,-33,-34.8,-48.8,-29.8,-55C-24.9,-61.2,-12.4,-57.7,0.9,-59.1C14.1,-60.6,28.3,-67.1,33.1,-60.8Z" transform="translate(100 100)" />
</svg>
